<svg width="35" height="28" viewBox="0 0 35 28" fill="none" xmlns="http://www.w3.org/2000/svg">
<path fill-rule="evenodd" clip-rule="evenodd" d="M0 6.21625C0 5.54454 0.544536 5 1.21625 5H4.49012C4.98249 5 5.42629 5.29686 5.61426 5.75194L6.8914 8.84397L8.69787 13.3491L8.69943 13.353L10.6656 18.208L24.9268 17.2107L27.1093 10.498H12.8923C12.2206 10.498 11.676 9.95351 11.676 9.28179C11.676 8.61007 12.2206 8.06553 12.8923 8.06553H28.7837C29.1731 8.06553 29.5389 8.25196 29.7678 8.56699C29.9966 8.88202 30.0608 9.28758 29.9404 9.65787L26.9865 18.7429C26.8332 19.2143 26.4092 19.5455 25.9147 19.5801L9.95454 20.6962C9.42928 20.7329 8.94003 20.4275 8.74238 19.9394L6.44167 14.2584L4.63593 9.75518L3.67657 7.43251H1.21625C0.544536 7.43251 0 6.88797 0 6.21625Z" fill="#090F15"/>
<path d="M22.3725 27.5675C23.5918 27.5675 24.5802 26.5791 24.5802 25.3598C24.5802 24.1406 23.5918 23.1521 22.3725 23.1521C21.1533 23.1521 20.1649 24.1406 20.1649 25.3598C20.1649 26.5791 21.1533 27.5675 22.3725 27.5675Z" fill="#090F15"/>
<path d="M12.4504 27.5675C13.6696 27.5675 14.6581 26.5791 14.6581 25.3598C14.6581 24.1406 13.6696 23.1521 12.4504 23.1521C11.2311 23.1521 10.2427 24.1406 10.2427 25.3598C10.2427 26.5791 11.2311 27.5675 12.4504 27.5675Z" fill="#090F15"/>
</svg>
