<svg width="30" height="30" viewBox="0 0 30 30" fill="none" xmlns="http://www.w3.org/2000/svg">
<g clip-path="url(#clip0_1137_3684)">
<path d="M14.9976 27.221C13.1509 27.221 11.3804 26.8023 9.81931 26.06C9.64797 25.9839 9.47663 25.9839 9.30529 26.06C8.67704 26.4026 8.08687 26.7833 7.55381 27.221C7.26825 27.4494 7.30632 27.8682 7.61093 28.0585C9.80027 29.2956 12.3133 29.9998 14.9976 29.9998C17.6819 29.9998 20.1949 29.2956 22.3842 28.0585C22.6888 27.8872 22.7269 27.4494 22.4414 27.221C21.8893 26.7833 21.2991 26.4026 20.6899 26.06C20.5376 25.9839 20.3472 25.9839 20.1759 26.06C18.6148 26.8023 16.8442 27.221 14.9976 27.221Z" fill="white"/>
<path d="M26.0198 23.1293C22.9166 20.6169 18.9949 19.2275 14.9969 19.2275C11.1703 19.2275 7.53411 20.4456 4.48806 22.7486C4.48806 22.7486 3.84078 23.2625 3.34579 23.7003C3.15542 23.8716 3.11734 24.1571 3.28868 24.3664C3.66944 24.8232 4.1073 25.3181 4.52614 25.7368C4.69748 25.9081 4.98304 25.9271 5.17342 25.7749C5.61129 25.4132 6.18242 24.9945 6.18242 24.9945C8.75252 23.0722 11.7986 22.0444 15.016 22.0444C18.3856 22.0444 21.6601 23.2054 24.2683 25.3181C24.2683 25.3181 24.5539 25.5465 24.8394 25.7749C25.0298 25.9271 25.3154 25.9271 25.4867 25.7558C25.9056 25.3371 26.3434 24.8613 26.7242 24.3855C26.8955 24.1761 26.8575 23.8906 26.6671 23.7193C26.3434 23.4148 26.0198 23.1293 26.0198 23.1293Z" fill="white"/>
<path d="M12.5424 0.194513C6.24085 1.20326 1.23391 6.18987 0.205872 12.4898C-0.28911 15.516 0.129721 18.409 1.23391 20.9404C1.38621 21.2829 1.80505 21.3781 2.07157 21.1497C2.62367 20.6929 3.1948 20.2552 3.78497 19.8555V19.8364C7.11659 17.6096 10.9622 16.4486 14.9982 16.4486C19.0342 16.4486 22.8989 17.6286 26.2115 19.8364V19.8555C26.8016 20.2552 27.3918 20.6929 27.9249 21.1497C28.1914 21.3781 28.6293 21.2829 28.7625 20.9594C29.5621 19.1322 30 17.1147 30 15.0021C30 5.92341 21.9089 -1.29005 12.5424 0.194513ZM14.9982 13.6698C10.6957 13.6698 6.56449 14.8308 2.96635 17.0576C2.85212 16.3915 2.79501 15.6873 2.79501 14.9831C2.79501 8.24542 8.27789 2.76395 15.0173 2.76395C21.7566 2.76395 27.2395 8.24542 27.2395 14.9831C27.2395 15.6873 27.1824 16.3725 27.0682 17.0576C23.432 14.8498 19.3008 13.6698 14.9982 13.6698Z" fill="white"/>
</g>
<defs>
<clipPath id="clip0_1137_3684">
<rect width="30" height="30" fill="white"/>
</clipPath>
</defs>
</svg>
