<svg width="26" height="20" viewBox="0 0 26 20" fill="none" xmlns="http://www.w3.org/2000/svg">
<path d="M12.056 7.728C12.056 7.728 10.712 7.728 8.024 7.728C8.024 6.02133 9.368 5.12533 12.056 5.04C12.056 5.04 12.056 3.376 12.056 0.0479965C8.30133 0.0479965 5.37867 0.83733 3.288 2.416C1.19733 3.952 0.152 6.17066 0.152 9.072V19.952C0.152 19.952 4.12 19.952 12.056 19.952C12.056 19.952 12.056 15.8773 12.056 7.728ZM25.368 7.728C25.368 7.728 24.024 7.728 21.336 7.728C21.336 6.02133 22.68 5.12533 25.368 5.04C25.368 5.04 25.368 3.376 25.368 0.0479965C21.6133 0.0479965 18.6907 0.83733 16.6 2.416C14.5093 3.952 13.464 6.17066 13.464 9.072V19.952C13.464 19.952 17.432 19.952 25.368 19.952C25.368 19.952 25.368 15.8773 25.368 7.728Z" fill="#224857"/>
</svg>