<svg width="14" height="16" viewBox="0 0 14 16" fill="none" xmlns="http://www.w3.org/2000/svg">
<path d="M2.625 16C2.14375 16 1.73192 15.8261 1.3895 15.4782C1.0465 15.1298 0.875 14.7111 0.875 14.2222V2.66667C0.391751 2.66667 0 2.26803 0 1.78478C0 1.29386 0.397969 0.888889 0.888889 0.888889H4.375C4.375 0.397969 4.77297 0 5.26389 0H8.73611C9.22703 0 9.625 0.397969 9.625 0.888889H13.1111C13.602 0.888889 14 1.29386 14 1.78478C14 2.26803 13.6082 2.66667 13.125 2.66667V14.2222C13.125 14.7111 12.9538 15.1298 12.6114 15.4782C12.2684 15.8261 11.8562 16 11.375 16H2.625ZM11.375 2.66667H2.625V14.2222H11.375V2.66667ZM4.375 11.5694C4.375 12.0527 4.76675 12.4444 5.25 12.4444C5.73325 12.4444 6.125 12.0527 6.125 11.5694V5.31944C6.125 4.8362 5.73325 4.44444 5.25 4.44444C4.76675 4.44444 4.375 4.8362 4.375 5.31944V11.5694ZM7.875 11.5694C7.875 12.0527 8.26675 12.4444 8.75 12.4444C9.23325 12.4444 9.625 12.0527 9.625 11.5694V5.31944C9.625 4.8362 9.23325 4.44444 8.75 4.44444C8.26675 4.44444 7.875 4.8362 7.875 5.31944V11.5694Z" fill="#090F15"/>
</svg>
