<svg width="24" height="24" viewBox="0 0 24 24" fill="none" xmlns="http://www.w3.org/2000/svg">
<path d="M16 21.519C16 22.2093 16.5596 22.769 17.25 22.769C17.9404 22.769 18.5 22.2093 18.5 21.519H16ZM5.5 21.519C5.5 22.2093 6.05964 22.769 6.75 22.769C7.44036 22.769 8 22.2093 8 21.519H5.5ZM16 19.1453V21.519H18.5V19.1453H16ZM8 21.519V19.1453H5.5V21.519H8ZM6.75 19.1453C8 19.1453 8 19.146 8 19.1467C8 19.1469 8 19.1476 8 19.148C7.99999 19.1489 7.99999 19.1496 7.99999 19.1503C7.99998 19.1518 7.99997 19.1529 7.99997 19.1538C7.99995 19.1557 7.99993 19.1565 7.99993 19.1564C7.99994 19.1562 8.00002 19.1522 8.00031 19.1447C8.00091 19.1295 8.00237 19.1005 8.00582 19.0596C8.01277 18.9774 8.02752 18.8499 8.05847 18.6928C8.12128 18.3739 8.2451 17.9617 8.48241 17.5601C8.90896 16.8382 9.80755 15.953 12 15.953V13.453C8.94245 13.453 7.21604 14.789 6.33009 16.2883C5.91115 16.9972 5.70685 17.6956 5.6056 18.2097C5.55451 18.469 5.52825 18.6886 5.51468 18.8493C5.50788 18.9299 5.50422 18.9963 5.50225 19.0462C5.50127 19.0712 5.5007 19.0922 5.50039 19.1088C5.50023 19.1171 5.50013 19.1243 5.50007 19.1304C5.50005 19.1335 5.50003 19.1362 5.50002 19.1387C5.50001 19.14 5.50001 19.1411 5.5 19.1422C5.5 19.1428 5.5 19.1436 5.5 19.1438C5.5 19.1446 5.5 19.1453 6.75 19.1453ZM12 15.953C14.1924 15.953 15.091 16.8382 15.5176 17.5601C15.7549 17.9617 15.8787 18.3739 15.9415 18.6928C15.9725 18.8499 15.9872 18.9774 15.9942 19.0596C15.9976 19.1005 15.9991 19.1295 15.9997 19.1447C16 19.1522 16.0001 19.1562 16.0001 19.1564C16.0001 19.1565 16.0001 19.1557 16 19.1538C16 19.1529 16 19.1518 16 19.1503C16 19.1496 16 19.1489 16 19.148C16 19.1476 16 19.1469 16 19.1467C16 19.146 16 19.1453 17.25 19.1453C18.5 19.1453 18.5 19.1446 18.5 19.1438C18.5 19.1436 18.5 19.1428 18.5 19.1422C18.5 19.1411 18.5 19.14 18.5 19.1387C18.5 19.1362 18.5 19.1335 18.4999 19.1304C18.4999 19.1243 18.4998 19.1171 18.4996 19.1088C18.4993 19.0922 18.4987 19.0712 18.4977 19.0462C18.4958 18.9963 18.4921 18.9299 18.4853 18.8493C18.4718 18.6886 18.4455 18.469 18.3944 18.2097C18.2932 17.6956 18.0888 16.9972 17.6699 16.2883C16.784 14.789 15.0576 13.453 12 13.453V15.953Z" fill="white"/>
<circle cx="12" cy="12" r="10.75" stroke="white" stroke-width="2.5"/>
<circle cx="12" cy="11.0999" r="3.25" stroke="white" stroke-width="2.5"/>
</svg>
