<?xml version="1.0" encoding="UTF-8" standalone="no"?>
<!DOCTYPE svg PUBLIC "-//W3C//DTD SVG 1.1//EN"
 "http://www.w3.org/Graphics/SVG/1.1/DTD/svg11.dtd">
<!-- Generated by graphviz version 2.44.1 (20200629.0846)
 -->
<!-- Pages: 1 -->
<svg width="1063pt" height="260pt"
 viewBox="0.00 0.00 1063.00 260.00" xmlns="http://www.w3.org/2000/svg" xmlns:xlink="http://www.w3.org/1999/xlink">
<g id="graph0" class="graph" transform="scale(1 1) rotate(0) translate(4 256)">
<polygon fill="white" stroke="transparent" points="-4,4 -4,-256 1059,-256 1059,4 -4,4"/>
<!-- [root] auth0_connection.automatic_migration -->
<g id="node1" class="node">
<title>[root] auth0_connection.automatic_migration</title>
<polygon fill="none" stroke="black" points="1055,-108 825,-108 825,-72 1055,-72 1055,-108"/>
<text text-anchor="middle" x="940" y="-86.3" font-family="Times,serif" font-size="14.00">auth0_connection.automatic_migration</text>
</g>
<!-- [root] provider.auth0 -->
<g id="node6" class="node">
<title>[root] provider.auth0</title>
<polygon fill="none" stroke="black" points="491,-36 403.86,-18 491,0 578.14,-18 491,-36"/>
<text text-anchor="middle" x="491" y="-14.3" font-family="Times,serif" font-size="14.00">provider.auth0</text>
</g>
<!-- [root] auth0_connection.automatic_migration&#45;&gt;[root] provider.auth0 -->
<g id="edge1" class="edge">
<title>[root] auth0_connection.automatic_migration&#45;&gt;[root] provider.auth0</title>
<path fill="none" stroke="black" d="M830.74,-71.97C741.54,-58.06 619.06,-38.96 548.13,-27.91"/>
<polygon fill="black" stroke="black" points="548.47,-24.42 538.05,-26.34 547.4,-31.33 548.47,-24.42"/>
</g>
<!-- [root] auth0_hook.post_user_registration -->
<g id="node2" class="node">
<title>[root] auth0_hook.post_user_registration</title>
<polygon fill="none" stroke="black" points="204,-108 0,-108 0,-72 204,-72 204,-108"/>
<text text-anchor="middle" x="102" y="-86.3" font-family="Times,serif" font-size="14.00">auth0_hook.post_user_registration</text>
</g>
<!-- [root] auth0_hook.post_user_registration&#45;&gt;[root] provider.auth0 -->
<g id="edge2" class="edge">
<title>[root] auth0_hook.post_user_registration&#45;&gt;[root] provider.auth0</title>
<path fill="none" stroke="black" d="M196.66,-71.97C272.08,-58.39 374.96,-39.88 436.99,-28.72"/>
<polygon fill="black" stroke="black" points="437.73,-32.14 446.95,-26.93 436.49,-25.25 437.73,-32.14"/>
</g>
<!-- [root] auth0_rule.multipass_rule -->
<g id="node3" class="node">
<title>[root] auth0_rule.multipass_rule</title>
<polygon fill="none" stroke="black" points="380,-108 222,-108 222,-72 380,-72 380,-108"/>
<text text-anchor="middle" x="301" y="-86.3" font-family="Times,serif" font-size="14.00">auth0_rule.multipass_rule</text>
</g>
<!-- [root] auth0_rule.multipass_rule&#45;&gt;[root] provider.auth0 -->
<g id="edge3" class="edge">
<title>[root] auth0_rule.multipass_rule&#45;&gt;[root] provider.auth0</title>
<path fill="none" stroke="black" d="M347.48,-71.88C379.5,-60.08 421.57,-44.58 451.88,-33.41"/>
<polygon fill="black" stroke="black" points="453.1,-36.69 461.27,-29.95 450.68,-30.12 453.1,-36.69"/>
</g>
<!-- [root] auth0_rule.user_metadata_rule -->
<g id="node4" class="node">
<title>[root] auth0_rule.user_metadata_rule</title>
<polygon fill="none" stroke="black" points="583.5,-108 398.5,-108 398.5,-72 583.5,-72 583.5,-108"/>
<text text-anchor="middle" x="491" y="-86.3" font-family="Times,serif" font-size="14.00">auth0_rule.user_metadata_rule</text>
</g>
<!-- [root] auth0_rule.user_metadata_rule&#45;&gt;[root] provider.auth0 -->
<g id="edge4" class="edge">
<title>[root] auth0_rule.user_metadata_rule&#45;&gt;[root] provider.auth0</title>
<path fill="none" stroke="black" d="M491,-71.7C491,-63.98 491,-54.71 491,-46.11"/>
<polygon fill="black" stroke="black" points="494.5,-46.1 491,-36.1 487.5,-46.1 494.5,-46.1"/>
</g>
<!-- [root] auth0_rule_config.my_rule_config -->
<g id="node5" class="node">
<title>[root] auth0_rule_config.my_rule_config</title>
<polygon fill="none" stroke="black" points="806.5,-108 601.5,-108 601.5,-72 806.5,-72 806.5,-108"/>
<text text-anchor="middle" x="704" y="-86.3" font-family="Times,serif" font-size="14.00">auth0_rule_config.my_rule_config</text>
</g>
<!-- [root] auth0_rule_config.my_rule_config&#45;&gt;[root] provider.auth0 -->
<g id="edge5" class="edge">
<title>[root] auth0_rule_config.my_rule_config&#45;&gt;[root] provider.auth0</title>
<path fill="none" stroke="black" d="M652.17,-71.97C615.41,-59.88 566.72,-43.88 532.52,-32.64"/>
<polygon fill="black" stroke="black" points="533.43,-29.26 522.83,-29.46 531.24,-35.91 533.43,-29.26"/>
</g>
<!-- [root] meta.count&#45;boundary (EachMode fixup) -->
<g id="node7" class="node">
<title>[root] meta.count&#45;boundary (EachMode fixup)</title>
<ellipse fill="none" stroke="black" cx="350" cy="-162" rx="176.27" ry="18"/>
<text text-anchor="middle" x="350" y="-158.3" font-family="Times,serif" font-size="14.00">[root] meta.count&#45;boundary (EachMode fixup)</text>
</g>
<!-- [root] meta.count&#45;boundary (EachMode fixup)&#45;&gt;[root] auth0_connection.automatic_migration -->
<g id="edge6" class="edge">
<title>[root] meta.count&#45;boundary (EachMode fixup)&#45;&gt;[root] auth0_connection.automatic_migration</title>
<path fill="none" stroke="black" d="M466.91,-148.46C558.73,-138.43 690.09,-123.69 814.72,-108.15"/>
<polygon fill="black" stroke="black" points="815.35,-111.6 824.83,-106.88 814.48,-104.65 815.35,-111.6"/>
</g>
<!-- [root] meta.count&#45;boundary (EachMode fixup)&#45;&gt;[root] auth0_hook.post_user_registration -->
<g id="edge7" class="edge">
<title>[root] meta.count&#45;boundary (EachMode fixup)&#45;&gt;[root] auth0_hook.post_user_registration</title>
<path fill="none" stroke="black" d="M293.1,-144.94C257.27,-134.83 210.73,-121.69 172.55,-110.91"/>
<polygon fill="black" stroke="black" points="173.1,-107.43 162.53,-108.08 171.2,-114.17 173.1,-107.43"/>
</g>
<!-- [root] meta.count&#45;boundary (EachMode fixup)&#45;&gt;[root] auth0_rule.multipass_rule -->
<g id="edge8" class="edge">
<title>[root] meta.count&#45;boundary (EachMode fixup)&#45;&gt;[root] auth0_rule.multipass_rule</title>
<path fill="none" stroke="black" d="M337.89,-143.7C332.13,-135.47 325.14,-125.48 318.79,-116.42"/>
<polygon fill="black" stroke="black" points="321.58,-114.29 312.97,-108.1 315.84,-118.3 321.58,-114.29"/>
</g>
<!-- [root] meta.count&#45;boundary (EachMode fixup)&#45;&gt;[root] auth0_rule.user_metadata_rule -->
<g id="edge9" class="edge">
<title>[root] meta.count&#45;boundary (EachMode fixup)&#45;&gt;[root] auth0_rule.user_metadata_rule</title>
<path fill="none" stroke="black" d="M383.77,-144.23C402.85,-134.76 426.9,-122.82 447.39,-112.65"/>
<polygon fill="black" stroke="black" points="449.12,-115.7 456.52,-108.12 446.01,-109.43 449.12,-115.7"/>
</g>
<!-- [root] meta.count&#45;boundary (EachMode fixup)&#45;&gt;[root] auth0_rule_config.my_rule_config -->
<g id="edge10" class="edge">
<title>[root] meta.count&#45;boundary (EachMode fixup)&#45;&gt;[root] auth0_rule_config.my_rule_config</title>
<path fill="none" stroke="black" d="M427.25,-145.72C480.31,-135.23 551.14,-121.23 607.86,-110.01"/>
<polygon fill="black" stroke="black" points="608.78,-113.4 617.91,-108.02 607.42,-106.53 608.78,-113.4"/>
</g>
<!-- [root] provider.auth0 (close) -->
<g id="node8" class="node">
<title>[root] provider.auth0 (close)</title>
<ellipse fill="none" stroke="black" cx="655" cy="-162" rx="110.48" ry="18"/>
<text text-anchor="middle" x="655" y="-158.3" font-family="Times,serif" font-size="14.00">[root] provider.auth0 (close)</text>
</g>
<!-- [root] provider.auth0 (close)&#45;&gt;[root] auth0_connection.automatic_migration -->
<g id="edge11" class="edge">
<title>[root] provider.auth0 (close)&#45;&gt;[root] auth0_connection.automatic_migration</title>
<path fill="none" stroke="black" d="M713.36,-146.67C755.93,-136.21 814.11,-121.92 860.86,-110.44"/>
<polygon fill="black" stroke="black" points="861.78,-113.82 870.66,-108.03 860.11,-107.02 861.78,-113.82"/>
</g>
<!-- [root] provider.auth0 (close)&#45;&gt;[root] auth0_hook.post_user_registration -->
<g id="edge12" class="edge">
<title>[root] provider.auth0 (close)&#45;&gt;[root] auth0_hook.post_user_registration</title>
<path fill="none" stroke="black" d="M575.65,-149.42C562.1,-147.54 548.15,-145.67 535,-144 395.35,-126.31 357.44,-126.87 214.23,-108.13"/>
<polygon fill="black" stroke="black" points="214.57,-104.65 204.19,-106.81 213.65,-111.59 214.57,-104.65"/>
</g>
<!-- [root] provider.auth0 (close)&#45;&gt;[root] auth0_rule.multipass_rule -->
<g id="edge13" class="edge">
<title>[root] provider.auth0 (close)&#45;&gt;[root] auth0_rule.multipass_rule</title>
<path fill="none" stroke="black" d="M587.58,-147.67C531.62,-136.6 451.56,-120.77 390.28,-108.65"/>
<polygon fill="black" stroke="black" points="390.72,-105.17 380.23,-106.67 389.36,-112.04 390.72,-105.17"/>
</g>
<!-- [root] provider.auth0 (close)&#45;&gt;[root] auth0_rule.user_metadata_rule -->
<g id="edge14" class="edge">
<title>[root] provider.auth0 (close)&#45;&gt;[root] auth0_rule.user_metadata_rule</title>
<path fill="none" stroke="black" d="M617.38,-144.94C594.48,-135.17 564.99,-122.58 540.25,-112.02"/>
<polygon fill="black" stroke="black" points="541.6,-108.79 531.03,-108.08 538.85,-115.23 541.6,-108.79"/>
</g>
<!-- [root] provider.auth0 (close)&#45;&gt;[root] auth0_rule_config.my_rule_config -->
<g id="edge15" class="edge">
<title>[root] provider.auth0 (close)&#45;&gt;[root] auth0_rule_config.my_rule_config</title>
<path fill="none" stroke="black" d="M666.86,-144.05C672.61,-135.84 679.65,-125.79 686.04,-116.66"/>
<polygon fill="black" stroke="black" points="689.04,-118.47 691.91,-108.28 683.31,-114.46 689.04,-118.47"/>
</g>
<!-- [root] root -->
<g id="node9" class="node">
<title>[root] root</title>
<ellipse fill="none" stroke="black" cx="502" cy="-234" rx="47.39" ry="18"/>
<text text-anchor="middle" x="502" y="-230.3" font-family="Times,serif" font-size="14.00">[root] root</text>
</g>
<!-- [root] root&#45;&gt;[root] meta.count&#45;boundary (EachMode fixup) -->
<g id="edge16" class="edge">
<title>[root] root&#45;&gt;[root] meta.count&#45;boundary (EachMode fixup)</title>
<path fill="none" stroke="black" d="M473.05,-219.67C451.21,-209.61 420.81,-195.61 395.7,-184.05"/>
<polygon fill="black" stroke="black" points="396.91,-180.75 386.36,-179.75 393.98,-187.11 396.91,-180.75"/>
</g>
<!-- [root] root&#45;&gt;[root] provider.auth0 (close) -->
<g id="edge17" class="edge">
<title>[root] root&#45;&gt;[root] provider.auth0 (close)</title>
<path fill="none" stroke="black" d="M531.14,-219.67C553.61,-209.39 585.07,-194.99 610.66,-183.29"/>
<polygon fill="black" stroke="black" points="612.16,-186.45 619.79,-179.11 609.24,-180.09 612.16,-186.45"/>
</g>
</g>
</svg>
